# xmcd
#
# Track frame offsets:
#	150
#	2207
#	10975
#	22410
#	33687
#	44067
#	58245
#	70915
#	88510
#	97645
#	110767
#	120054
#	133492
#	142420
#	153717
#
# Disc length: 2089 seconds
#
# Revision: 2
# Processed by: cddbd v1.5.2PL0 Copyright (c) Steve Scherf et al.
# Submitted via: EasyCDDAExtractor 10.2.0.1
#
DISCID=df08270f
DTITLE=The Stanley Brothers - Shadows Of The Past
DYEAR=1996
DGENRE=Country
TTITLE0=Introduction by Bill Napier
TTITLE1=Going To The Races
TTITLE2=Just Another Broken Heart
TTITLE3=I Hope You Have Learned
TTITLE4=Here Today And Gone Tomorrow
TTITLE5=Thinking Of The Old Days
TTITLE6=Lonesome Road Blues
TTITLE7=John Henry, The Steel Driving Man
TTITLE8=White House Blues
TTITLE9=They Sleep Together, Now At Rest
TTITLE10=Going To Georgia
TTITLE11=The Propaganda Routine
TTITLE12=Katy Cline
TTITLE13=Closing Comments
TTITLE14=Theme: Long Journey Home
EXTD=YEAR: 1996 ID3G:   2
EXTT0=
EXTT1=
EXTT2=
EXTT3=
EXTT4=
EXTT5=
EXTT6=
EXTT7=
EXTT8=
EXTT9=
EXTT10=
EXTT11=
EXTT12=
EXTT13=
EXTT14=
PLAYORDER=
